<?xml version="1.0" encoding="UTF-8"?>
<svg version="1.1" xmlns="http://www.w3.org/2000/svg" width="1024" height="1024">
<path d="M0 0 C1.26729446 -0.00705963 2.53458893 -0.01411926 3.84028625 -0.02139282 C7.90788863 -0.03890715 11.97533655 -0.046085 16.04296875 -0.046875 C17.0839484 -0.04731686 17.0839484 -0.04731686 18.14595795 -0.04776764 C39.31233084 -0.0492187 60.23702367 0.18677907 81.23046875 3.203125 C81.93101379 3.30258423 82.63155884 3.40204346 83.35333252 3.5045166 C133.01856642 10.59935473 180.81866359 24.12596186 226.5078125 44.96289062 C228.92004707 46.06172057 231.33922164 47.1428121 233.76171875 48.21875 C246.02337488 53.73973527 257.61972122 60.44097467 269.23046875 67.203125 C270.11202637 67.71423828 270.99358398 68.22535156 271.90185547 68.75195312 C296.91417836 83.30492233 320.44226406 100.14647989 342.23046875 119.203125 C342.96007812 119.83347656 343.6896875 120.46382813 344.44140625 121.11328125 C346.38256618 122.79741012 348.3090726 124.49649569 350.23046875 126.203125 C351.43123047 127.26466797 351.43123047 127.26466797 352.65625 128.34765625 C357.42541312 132.59575755 362.02084269 136.94810067 366.49609375 141.50390625 C368.29844686 143.33328554 368.29844686 143.33328554 370.79296875 145.203125 C373.65180046 147.54883307 375.88160589 150.18891395 378.27734375 152.99609375 C380.34336524 155.33069803 382.50933039 157.51598365 384.73046875 159.703125 C388.77888373 163.7106469 392.54103046 167.86615265 396.23046875 172.203125 C397.00648438 173.09 397.7825 173.976875 398.58203125 174.890625 C407.00487929 184.58508626 414.62274283 194.86436475 422.23046875 205.203125 C422.69839844 205.83331543 423.16632812 206.46350586 423.6484375 207.11279297 C436.57670216 224.54108821 447.78414391 243.20427445 458.23046875 262.203125 C458.69549805 263.04665527 459.16052734 263.89018555 459.63964844 264.75927734 C495.42726601 330.13616726 517.16623717 407.54685196 517.43359375 482.34765625 C517.44065338 483.66358261 517.44771301 484.97950897 517.45498657 486.33531189 C517.47452587 490.56208854 517.47967866 494.78880742 517.48046875 499.015625 C517.48091061 500.09560509 517.48091061 500.09560509 517.48136139 501.19740295 C517.48275971 522.3386505 517.34859346 543.24332413 514.23046875 564.203125 C514.02431517 565.63117062 513.81826537 567.05923123 513.61230469 568.48730469 C506.30327555 618.47942632 492.23789827 666.2369254 471.23046875 712.203125 C470.66078369 713.4701123 470.66078369 713.4701123 470.07958984 714.76269531 C452.11431625 754.6944889 427.02684689 792.27910412 398.23046875 825.203125 C397.60011719 825.93273437 396.96976563 826.66234375 396.3203125 827.4140625 C391.69737458 832.74255131 386.97047778 837.9788426 382.23046875 843.203125 C381.75383789 843.73164062 381.27720703 844.26015625 380.78613281 844.8046875 C375.47954998 850.68190738 370.24126849 856.44150369 364.15625 861.53125 C361.90198022 863.48830368 359.82510328 865.57637512 357.73046875 867.703125 C353.72294685 871.75153998 349.5674411 875.51368671 345.23046875 879.203125 C344.34359375 879.97914063 343.45671875 880.75515625 342.54296875 881.5546875 C332.84850749 889.97753554 322.569229 897.59539908 312.23046875 905.203125 C311.60027832 905.67105469 310.97008789 906.13898437 310.32080078 906.62109375 C292.88877278 919.55212736 274.22067783 930.73388502 255.23046875 941.203125 C254.42416016 941.65220215 253.61785156 942.1012793 252.78710938 942.56396484 C199.95598212 971.83035931 140.84801229 989.00319229 81.23046875 997.203125 C80.04598145 997.36973633 78.86149414 997.53634766 77.64111328 997.70800781 C37.50572701 1003.06827093 -6.69845206 1002.96055244 -46.76953125 997.203125 C-47.47007629 997.10366577 -48.17062134 997.00420654 -48.89239502 996.9017334 C-144.28481921 983.27461932 -234.92152704 944.91826732 -307.76953125 881.203125 C-308.49914062 880.57277344 -309.22875 879.94242188 -309.98046875 879.29296875 C-311.92162868 877.60883988 -313.8481351 875.90975431 -315.76953125 874.203125 C-316.57003906 873.49542969 -317.37054688 872.78773438 -318.1953125 872.05859375 C-322.96447562 867.81049245 -327.55990519 863.45814933 -332.03515625 858.90234375 C-333.83750936 857.07296446 -333.83750936 857.07296446 -336.33203125 855.203125 C-339.19086296 852.85741693 -341.42066839 850.21733605 -343.81640625 847.41015625 C-345.88242774 845.07555197 -348.04839289 842.89026635 -350.26953125 840.703125 C-354.31794623 836.6956031 -358.08009296 832.54009735 -361.76953125 828.203125 C-362.54554688 827.31625 -363.3215625 826.429375 -364.12109375 825.515625 C-372.54394179 815.82116374 -380.16180533 805.54188525 -387.76953125 795.203125 C-388.23746094 794.57293457 -388.70539063 793.94274414 -389.1875 793.29345703 C-402.11576466 775.86516179 -413.32320641 757.20197555 -423.76953125 738.203125 C-424.4670752 736.93782959 -424.4670752 736.93782959 -425.17871094 735.64697266 C-460.96632851 670.27008274 -482.70529967 592.85939804 -482.97265625 518.05859375 C-482.97971588 516.74266739 -482.98677551 515.42674103 -482.99404907 514.07093811 C-483.01358837 509.84416146 -483.01874116 505.61744258 -483.01953125 501.390625 C-483.01982582 500.67063828 -483.02012039 499.95065155 -483.02042389 499.20884705 C-483.02182221 478.0675995 -482.88765596 457.16292587 -479.76953125 436.203125 C-479.56337767 434.77507938 -479.35732787 433.34701877 -479.15136719 431.91894531 C-471.84233805 381.92682368 -457.77696077 334.1693246 -436.76953125 288.203125 C-436.19984619 286.9361377 -436.19984619 286.9361377 -435.61865234 285.64355469 C-417.65337875 245.7117611 -392.56590939 208.12714588 -363.76953125 175.203125 C-363.13917969 174.47351563 -362.50882812 173.74390625 -361.859375 172.9921875 C-360.17524613 171.05102757 -358.47616056 169.12452115 -356.76953125 167.203125 C-356.06183594 166.40261719 -355.35414063 165.60210937 -354.625 164.77734375 C-350.3768987 160.00818063 -346.02455558 155.41275106 -341.46875 150.9375 C-339.63937071 149.13514689 -339.63937071 149.13514689 -337.76953125 146.640625 C-335.42382318 143.78179329 -332.7837423 141.55198786 -329.9765625 139.15625 C-327.64195822 137.09022851 -325.4566726 134.92426336 -323.26953125 132.703125 C-319.26200935 128.65471002 -315.1065036 124.89256329 -310.76953125 121.203125 C-309.43921875 120.03910156 -309.43921875 120.03910156 -308.08203125 118.8515625 C-298.38756999 110.42871446 -288.1082915 102.81085092 -277.76953125 95.203125 C-277.13934082 94.73519531 -276.50915039 94.26726562 -275.85986328 93.78515625 C-258.43156804 80.85689159 -239.7683818 69.64944984 -220.76953125 59.203125 C-219.92600098 58.7380957 -219.0824707 58.27306641 -218.21337891 57.79394531 C-164.35311583 28.31058353 -104.28826964 10.33648346 -43.45703125 2.953125 C-42.77274048 2.86995026 -42.08844971 2.78677551 -41.38342285 2.70108032 C-27.59697386 1.04629883 -13.89152624 0.05184534 0 0 Z M235.23046875 124.203125 C234.30226318 124.46416016 233.37405762 124.72519531 232.41772461 124.99414062 C216.62011478 129.43179936 200.82364175 133.85362959 184.91796875 137.890625 C170.74728401 141.49572831 156.64522684 145.33985051 142.54296875 149.203125 C122.81139209 154.60673044 103.06321933 159.9427301 83.29296875 165.203125 C82.0554184 165.53246033 80.81786804 165.86179565 79.54281616 166.20111084 C74.54266715 167.53162399 69.54246799 168.8619483 64.54216003 170.19186401 C51.84784414 173.5689303 39.15785063 176.96203868 26.46920776 180.36035156 C24.10901994 180.99241909 21.7487727 181.62426485 19.38845825 182.25585938 C7.01833323 185.56601808 -5.34837158 188.8865301 -17.69223022 192.29360962 C-22.15774931 193.5198282 -26.6180585 194.65614306 -31.14453125 195.640625 C-37.04894394 196.95007711 -42.80730864 198.65438274 -48.6015625 200.375 C-60.247423 203.80026617 -71.94548657 206.99538363 -83.67739868 210.11129761 C-87.22924071 211.0547263 -90.78012855 212.00167808 -94.33081055 212.94946289 C-98.15680874 213.970713 -101.98282449 214.99189478 -105.80915833 216.0118866 C-120.19898602 219.84809999 -134.58243191 223.70803061 -148.96485901 227.57188416 C-151.08408588 228.14117694 -153.20335471 228.71031328 -155.32263184 229.27941895 C-176.91389814 235.07796349 -198.49362282 240.91819814 -220.06759644 246.7807312 C-234.92282445 250.81690261 -249.78495247 254.82207025 -264.67276001 258.73638916 C-274.9798719 261.44681013 -285.2554232 264.25893027 -295.52294922 267.11523438 C-305.58187008 269.90166949 -315.67199391 272.56072598 -325.76953125 275.203125 C-337.62090591 278.30564834 -349.45907435 281.44798883 -361.26953125 284.703125 C-362.45546875 285.02925781 -363.64140625 285.35539063 -364.86328125 285.69140625 C-369.87939823 287.08148584 -374.83966073 288.52834953 -379.76953125 290.203125 C-375.44903374 298.02036757 -370.67141662 305.4922318 -365.76953125 312.953125 C-360.52564578 320.93609137 -355.37391919 328.96601478 -350.33203125 337.078125 C-343.22186436 348.51439657 -335.97248307 359.85758337 -328.69970703 371.19091797 C-325.67094675 375.91756158 -322.65681383 380.65346868 -319.64453125 385.390625 C-318.78976196 386.73471436 -318.78976196 386.73471436 -317.91772461 388.10595703 C-316.77416058 389.90440195 -315.63068694 391.70290435 -314.48730469 393.50146484 C-311.58279561 398.06958557 -308.67603896 402.63627577 -305.76953125 407.203125 C-304.60285405 409.03645163 -303.43618738 410.86978496 -302.26953125 412.703125 C-301.69203125 413.610625 -301.11453125 414.518125 -300.51953125 415.453125 C-295.26953125 423.703125 -295.26953125 423.703125 -293.52001953 426.45239258 C-292.35176737 428.28819412 -291.18347301 430.1239688 -290.01513672 431.9597168 C-287.1223837 436.50506876 -284.23033355 441.05086467 -281.33984375 445.59765625 C-275.16486757 455.30920969 -268.97616915 465.0117713 -262.76953125 474.703125 C-255.98924946 485.29019486 -249.23211022 495.89176646 -242.48730469 506.50146484 C-239.58279562 511.06958556 -236.67606505 515.63629239 -233.76953125 520.203125 C-230.29189685 525.66728789 -226.8146637 531.13170302 -223.33984375 536.59765625 C-216.4948401 547.36298017 -209.63078066 558.11586451 -202.74853516 568.85742188 C-198.84276425 574.95562333 -194.95055062 581.06214895 -191.07128906 587.17724609 C-188.31189062 591.5242334 -185.54306713 595.86514723 -182.76953125 600.203125 C-182.32544922 600.89937988 -181.88136719 601.59563477 -181.42382812 602.31298828 C-180.29708252 604.07319348 -179.15888807 605.8260565 -178.01953125 607.578125 C-177.4265625 608.49335937 -176.83359375 609.40859375 -176.22265625 610.3515625 C-175.743125 610.96257812 -175.26359375 611.57359375 -174.76953125 612.203125 C-174.10953125 612.203125 -173.44953125 612.203125 -172.76953125 612.203125 C-171.39461826 610.69525339 -170.09588663 609.11772739 -168.83203125 607.515625 C-168.02636719 606.50886719 -167.22070312 605.50210937 -166.390625 604.46484375 C-165.96249512 603.92907715 -165.53436523 603.39331055 -165.09326172 602.84130859 C-162.90461052 600.13274172 -160.65030993 597.48082431 -158.39453125 594.828125 C-157.93377197 594.28518799 -157.4730127 593.74225098 -156.99829102 593.18286133 C-156.05807644 592.07510635 -155.11756452 590.96760369 -154.17675781 589.86035156 C-151.87057705 587.14446762 -149.57024457 584.4236406 -147.26953125 581.703125 C-144.49907049 578.42714895 -141.7272728 575.15235365 -138.94921875 571.8828125 C-134.69987204 566.8778952 -130.47272434 561.86128875 -126.33203125 556.765625 C-122.37444937 551.90183475 -118.30410679 547.14431269 -114.21118164 542.39477539 C-111.18007836 538.87013581 -108.19967809 535.31272618 -105.26953125 531.703125 C-100.88240223 526.30236328 -96.35729713 521.028448 -91.8203125 515.75390625 C-85.57525804 508.49281497 -79.37321975 501.19759071 -73.33203125 493.765625 C-68.9204007 488.34741921 -64.37629483 483.0504165 -59.8203125 477.75390625 C-53.57525804 470.49281497 -47.37321975 463.19759071 -41.33203125 455.765625 C-37.37444937 450.90183475 -33.30410679 446.14431269 -29.21118164 441.39477539 C-26.18007836 437.87013581 -23.19967809 434.31272618 -20.26953125 430.703125 C-15.88240223 425.30236328 -11.35729713 420.028448 -6.8203125 414.75390625 C-0.57525804 407.49281497 5.62678025 400.19759071 11.66796875 392.765625 C15.62555063 387.90183475 19.69589321 383.14431269 23.78881836 378.39477539 C26.81992164 374.87013581 29.80032191 371.31272618 32.73046875 367.703125 C37.11759777 362.30236328 41.64270287 357.028448 46.1796875 351.75390625 C52.42474196 344.49281497 58.62678025 337.19759071 64.66796875 329.765625 C68.62555063 324.90183475 72.69589321 320.14431269 76.78881836 315.39477539 C79.81992164 311.87013581 82.80032191 308.31272618 85.73046875 304.703125 C90.11759777 299.30236328 94.64270287 294.028448 99.1796875 288.75390625 C105.42474196 281.49281497 111.62678025 274.19759071 117.66796875 266.765625 C121.69123466 261.82171987 125.82057232 256.97603568 129.98217773 252.14868164 C130.93572936 251.04243344 131.88768516 249.93480729 132.83789062 248.82568359 C133.78698576 247.719848 134.74166155 246.61878343 135.70117188 245.52197266 C138.37872861 242.75992425 138.37872861 242.75992425 139.23046875 239.203125 C139.89046875 239.203125 140.55046875 239.203125 141.23046875 239.203125 C142.86395745 237.43126058 142.86395745 237.43126058 144.60546875 235.078125 C148.01623552 230.7016965 151.53958383 226.46069413 155.16796875 222.265625 C158.74456099 218.12096611 162.28046301 213.95458398 165.73046875 209.703125 C170.11759777 204.30236328 174.64270287 199.028448 179.1796875 193.75390625 C185.42474196 186.49281497 191.62678025 179.19759071 197.66796875 171.765625 C201.62555063 166.90183475 205.69589321 162.14431269 209.78881836 157.39477539 C213.55377815 153.01678986 217.22232716 148.56955437 220.8515625 144.078125 C222.68883164 141.85771435 224.55153406 139.67998326 226.453125 137.515625 C227.00613281 136.88333984 227.55914063 136.25105469 228.12890625 135.59960938 C229.22028721 134.35579375 230.31776273 133.11729383 231.421875 131.88476562 C234.52316358 128.55221994 234.52316358 128.55221994 235.23046875 124.203125 Z M449.23046875 460.203125 C447.81181519 460.60869629 447.81181519 460.60869629 446.36450195 461.02246094 C416.59061013 469.52317122 386.70150934 477.55458569 356.7578125 485.43359375 C354.123584 486.12717241 351.48948686 486.8212478 348.85546875 487.515625 C348.20577118 487.68677826 347.55607361 487.85793152 346.88668823 488.03427124 C332.5600445 491.81268586 318.27185347 495.73139158 303.98046875 499.640625 C287.70901923 504.09124568 271.43132714 508.50801601 255.11035156 512.77355957 C239.8844348 516.75321413 224.68108021 520.81544392 209.48046875 524.890625 C208.31444122 525.20314209 207.1484137 525.51565918 205.947052 525.83764648 C192.97155734 529.31578193 179.99843204 532.80266336 167.0271759 536.29656982 C157.73936852 538.79789961 148.45031853 541.29459164 139.16103935 543.79044914 C96.35764358 555.29093515 53.55814844 566.80563627 10.7673645 578.35296631 C-12.54913332 584.64489106 -35.87078454 590.91652752 -59.203125 597.1494751 C-78.72171103 602.36518239 -98.21576918 607.66899683 -117.69775391 613.01977539 C-119.82187151 613.60197558 -121.94605667 614.18392934 -124.0703125 614.765625 C-125.09535889 615.04687729 -126.12040527 615.32812958 -127.17651367 615.61790466 C-132.87267532 617.17183651 -138.57909079 618.67342418 -144.30224609 620.125 C-145.54580368 620.44138428 -146.78936127 620.75776855 -148.07060242 621.08374023 C-150.47917139 621.69376095 -152.88929553 622.29768172 -155.30110168 622.89477539 C-156.38018295 623.16797607 -157.45926422 623.44117676 -158.57104492 623.72265625 C-159.52822922 623.96089111 -160.48541351 624.19912598 -161.47160339 624.44458008 C-163.93199057 625.06570607 -163.93199057 625.06570607 -165.76953125 627.203125 C-165.43856445 627.70948486 -165.10759766 628.21584473 -164.76660156 628.73754883 C-158.27119508 638.68294152 -151.82387604 648.65450881 -145.49853516 658.70898438 C-141.32895766 665.33165204 -137.11693032 671.9265277 -132.89453125 678.515625 C-126.07140282 689.16446624 -119.27241415 699.82836767 -112.48730469 710.50146484 C-109.58279561 715.06958557 -106.67603896 719.63627577 -103.76953125 724.203125 C-102.60285405 726.03645163 -101.43618738 727.86978496 -100.26953125 729.703125 C-99.69203125 730.610625 -99.11453125 731.518125 -98.51953125 732.453125 C-64.10286458 786.53645833 -29.68619792 840.61979167 4.73046875 894.703125 C5.30829102 895.6111084 5.88611328 896.5190918 6.48144531 897.45458984 C7.64494107 899.28298672 8.8083529 901.11143702 9.97167969 902.93994141 C12.93616585 907.59925005 15.90222604 912.25754432 18.87109375 916.9140625 C25.71032718 927.64461562 32.51139935 938.39687975 39.23046875 949.203125 C43.03437872 945.49639521 46.54227192 941.62437744 49.98046875 937.578125 C50.7703418 936.65290039 50.7703418 936.65290039 51.57617188 935.70898438 C55.41160486 931.20246713 59.16339403 926.63226753 62.89453125 922.0390625 C66.58939546 917.55332434 70.39007697 913.15957666 74.1796875 908.75390625 C80.42474196 901.49281497 86.62678025 894.19759071 92.66796875 886.765625 C96.62555063 881.90183475 100.69589321 877.14431269 104.78881836 872.39477539 C107.81992164 868.87013581 110.80032191 865.31272618 113.73046875 861.703125 C118.11759777 856.30236328 122.64270287 851.028448 127.1796875 845.75390625 C133.42474196 838.49281497 139.62678025 831.19759071 145.66796875 823.765625 C150.0795993 818.34741921 154.62370517 813.0504165 159.1796875 807.75390625 C165.42474196 800.49281497 171.62678025 793.19759071 177.66796875 785.765625 C181.62555063 780.90183475 185.69589321 776.14431269 189.78881836 771.39477539 C192.81992164 767.87013581 195.80032191 764.31272618 198.73046875 760.703125 C203.11759777 755.30236328 207.64270287 750.028448 212.1796875 744.75390625 C218.42474196 737.49281497 224.62678025 730.19759071 230.66796875 722.765625 C235.0795993 717.34741921 239.62370517 712.0504165 244.1796875 706.75390625 C250.42474196 699.49281497 256.62678025 692.19759071 262.66796875 684.765625 C267.0795993 679.34741921 271.62370517 674.0504165 276.1796875 668.75390625 C282.42474196 661.49281497 288.62678025 654.19759071 294.66796875 646.765625 C298.62555063 641.90183475 302.69589321 637.14431269 306.78881836 632.39477539 C309.81992164 628.87013581 312.80032191 625.31272618 315.73046875 621.703125 C320.11759777 616.30236328 324.64270287 611.028448 329.1796875 605.75390625 C335.40569242 598.51496376 341.59133115 591.24446591 347.60546875 583.828125 C351.77203298 578.70578976 356.09248156 573.72895122 360.4309082 568.75268555 C364.35296415 564.24372543 368.1607874 559.65614436 371.921875 555.01171875 C374.64390966 551.7001402 377.43186606 548.44999441 380.23046875 545.203125 C383.78504367 541.078482 387.29839173 536.93104596 390.73046875 532.703125 C395.11759777 527.30236328 399.64270287 522.028448 404.1796875 516.75390625 C410.42474196 509.49281497 416.62678025 502.19759071 422.66796875 494.765625 C427.06793618 489.36174343 431.59924059 484.07821561 436.14453125 478.796875 C440.87604035 473.29638259 445.55129574 467.74812923 450.23046875 462.203125 C449.90046875 461.543125 449.57046875 460.883125 449.23046875 460.203125 Z " fill="#61adca" transform="translate(494.76953125,11.796875)"/>
</svg>
